<svg xmlns="http://www.w3.org/2000/svg" enable-background="new 0 0 3000 3000" viewBox="0 0 3000 3000"><path fill="#37424c" d="M1101.76,2421.23c-4.24,0-7.7-3.42-7.73-7.67c-0.03-4.27,3.4-7.76,7.67-7.79l30.93-0.27
				c3.78-0.38,7.76,3.39,7.8,7.66s-3.38,7.76-7.66,7.8l-30.95,0.27C1101.8,2421.23,1101.78,2421.23,1101.76,2421.23z"/><path fill="#37424c" d="M1020.89,2421.56c-14.46,0-28.86-0.04-43.16-0.12c-4.26-0.02-7.71-3.5-7.69-7.77
				c0.02-4.26,3.48-7.69,7.73-7.69c0.01,0,0.03,0,0.04,0c14.28,0.08,28.64,0.12,43.08,0.12l18.79-0.02h0.01
				c4.27,0,7.72,3.45,7.73,7.72s-3.45,7.73-7.72,7.74L1020.89,2421.56z M915.84,2420.81c-0.04,0-0.08,0-0.11,0
				c-20.9-0.31-41.57-0.73-62.03-1.3c-4.27-0.12-7.63-3.67-7.52-7.94c0.12-4.27,3.71-7.75,7.94-7.52c20.4,0.56,41.01,0.99,61.83,1.3
				c4.28,0.06,7.68,3.57,7.62,7.84C923.51,2417.43,920.06,2420.81,915.84,2420.81z M792.01,2417.39c-0.11,0-0.22,0-0.34-0.01
				c-20.93-0.89-41.6-1.94-62-3.16c-4.27-0.26-7.51-3.92-7.26-8.18c0.27-4.27,4.15-7.37,8.18-7.26c20.32,1.22,40.9,2.27,61.74,3.16
				c4.26,0.18,7.57,3.78,7.39,8.05C799.55,2414.14,796.13,2417.39,792.01,2417.39z M668.36,2409.83c-0.21,0-0.43-0.01-0.64-0.03
				c-20.94-1.72-41.57-3.7-61.87-5.92c-4.24-0.46-7.31-4.28-6.83-8.52c0.46-4.25,4.15-7.52,8.53-6.83
				c20.16,2.21,40.64,4.16,61.45,5.88c4.25,0.34,7.42,4.08,7.07,8.33C675.72,2406.77,672.34,2409.83,668.36,2409.83z
				 M545.25,2396.22c-0.36,0-0.72-0.02-1.1-0.08c-20.88-2.96-41.38-6.25-61.44-9.89c-4.21-0.77-7-4.79-6.23-8.99
				c0.77-4.21,4.92-6.9,8.99-6.23c19.88,3.62,40.17,6.87,60.86,9.81c4.23,0.59,7.16,4.51,6.56,8.74
				C552.35,2393.43,549.04,2396.22,545.25,2396.22z M423.43,2373.94c-0.57,0-1.16-0.06-1.74-0.2
				c-20.67-4.74-40.98-10.01-60.39-15.61c-4.1-1.19-6.46-5.48-5.27-9.57c1.2-4.11,5.37-6.45,9.58-5.29
				c19.11,5.54,39.15,10.72,59.54,15.41c4.16,0.95,6.76,5.1,5.8,9.26C430.14,2371.52,426.96,2373.94,423.43,2373.94z
				 M304.59,2339.25c-0.88,0-1.77-0.15-2.65-0.46c-20.06-7.32-39.53-15.28-57.88-23.69c-3.87-1.77-5.59-6.36-3.8-10.24
				c1.78-3.89,6.36-5.61,10.25-3.81c17.97,8.22,37.06,16.04,56.73,23.2c4.01,1.47,6.08,5.9,4.62,9.91
				C310.71,2337.31,307.76,2339.25,304.59,2339.25z M192.27,2287.46c-1.32,0-2.66-0.33-3.88-1.05l-7.04-4.14
				c-13.66-8.15-22.13-23.05-22.13-38.88c0-6.24,1.29-12.24,3.83-17.82c1.77-3.9,6.37-5.59,10.24-3.83
				c3.89,1.77,5.6,6.36,3.83,10.23c-1.62,3.56-2.45,7.4-2.45,11.42c0,10.42,5.59,20.22,14.59,25.59l6.9,4.06
				c3.69,2.15,4.94,6.89,2.8,10.57C197.53,2286.08,194.94,2287.46,192.27,2287.46z M210.28,2189.8c-2.02,0-4.05-0.8-5.57-2.36
				c-2.96-3.08-2.87-7.97,0.2-10.93c14.31-13.79,30.45-27.42,47.97-40.52c3.42-2.53,8.27-1.85,10.82,1.56
				c2.56,3.42,1.86,8.26-1.56,10.82c-17.01,12.72-32.65,25.94-46.5,39.28C214.15,2189.09,212.21,2189.8,210.28,2189.8z
				 M308.85,2115.27c-2.61,0-5.14-1.31-6.6-3.69c-2.22-3.63-1.09-8.39,2.56-10.63c16.99-10.4,35.32-20.73,54.48-30.66
				c3.81-1.94,8.45-0.5,10.42,3.31c1.96,3.78,0.48,8.45-3.31,10.41c-18.82,9.77-36.83,19.89-53.52,30.12
				C311.62,2114.91,310.23,2115.27,308.85,2115.27z M418.65,2057.95c-2.95,0-5.76-1.69-7.05-4.56c-1.75-3.89-0.01-8.46,3.88-10.22
				c18.08-8.14,37.39-16.31,57.42-24.27c3.97-1.56,8.46,0.35,10.04,4.33c1.57,3.96-0.36,8.46-4.33,10.04
				c-19.82,7.87-38.93,15.94-56.8,23.98C420.79,2057.72,419.72,2057.95,418.65,2057.95z M533.82,2012.03
				c-3.18,0-6.16-1.97-7.29-5.14c-1.43-4.03,0.68-8.45,4.7-9.87c19.26-6.83,38.95-13.47,58.98-19.9c4.04-1.31,8.43,0.92,9.72,4.99
				c1.31,4.07-0.92,8.43-4.99,9.72c-19.9,6.39-39.42,12.96-58.54,19.76C535.55,2011.89,534.67,2012.03,533.82,2012.03z
				 M651.86,1974.03c-3.35,0-6.43-2.18-7.42-5.56c-1.2-4.1,1.15-8.39,5.24-9.59c19.7-5.77,39.67-11.36,59.88-16.78
				c4.25-1.09,8.37,1.37,9.47,5.47c1.1,4.13-1.34,8.36-5.47,9.47c-20.09,5.39-39.96,10.95-59.54,16.68
				C653.31,1973.93,652.58,1974.03,651.86,1974.03z M771.63,1941.84c-3.46,0-6.62-2.36-7.49-5.87c-1.02-4.15,1.5-8.33,5.64-9.36
				c20-4.96,40.16-9.77,60.45-14.43c4.21-0.92,8.3,1.66,9.27,5.81c0.95,4.17-1.65,8.32-5.81,9.27
				c-20.21,4.64-40.29,9.43-60.19,14.35C772.88,1941.78,772.26,1941.84,771.63,1941.84z M892.49,1914.01
				c-3.56,0-6.78-2.49-7.55-6.11c-0.89-4.18,1.76-8.28,5.94-9.18c20.18-4.33,40.44-8.53,60.76-12.62c4.14-0.83,8.26,1.88,9.1,6.06
				c0.84,4.19-1.87,8.25-6.06,9.1c-20.24,4.07-40.44,8.27-60.56,12.57C893.57,1913.95,893.03,1914.01,892.49,1914.01z
				 M1014.1,1889.53c-3.65,0-6.89-2.59-7.59-6.29c-0.79-4.2,1.97-8.24,6.16-9.04c20.37-3.85,40.75-7.59,61.09-11.21
				c4.23-0.73,8.22,2.04,8.97,6.25c0.76,4.21-2.05,8.22-6.25,8.97c-20.29,3.62-40.61,7.35-60.93,11.19
				C1015.05,1889.48,1014.57,1889.53,1014.1,1889.53z M1136.21,1867.69c-3.7,0-6.98-2.67-7.61-6.44c-0.71-4.21,2.12-8.19,6.33-8.91
				c20.52-3.48,40.95-6.86,61.25-10.14c4.32-0.62,8.19,2.18,8.87,6.39c0.68,4.22-2.18,8.18-6.39,8.87
				c-20.28,3.28-40.68,6.65-61.15,10.12C1137.07,1867.66,1136.64,1867.69,1136.21,1867.69z M1258.65,1847.89
				c-3.74,0-7.04-2.73-7.63-6.54c-0.65-4.22,2.23-8.18,6.45-8.83c20.67-3.2,41.13-6.3,61.37-9.34c4.25-0.61,8.15,2.27,8.8,6.5
				c0.62,4.23-2.29,8.17-6.5,8.8c-20.22,3.02-40.66,6.12-61.29,9.32C1259.45,1847.85,1259.05,1847.89,1258.65,1847.89z
				 M1381.36,1829.53c-3.77,0-7.09-2.77-7.64-6.62c-0.61-4.22,2.32-8.14,6.54-8.76l61.42-8.81c4.26-0.77,8.13,2.33,8.73,6.56
				c0.61,4.23-2.33,8.14-6.56,8.74l-61.38,8.81C1382.1,1829.5,1381.73,1829.53,1381.36,1829.53z M1504.2,1812.05
				c-3.8,0-7.1-2.79-7.65-6.65c-0.59-4.23,2.36-8.13,6.58-8.72l61.44-8.65c4.14-0.65,8.13,2.34,8.73,6.57s-2.35,8.14-6.57,8.73
				l-61.44,8.65C1504.93,1812.03,1504.56,1812.05,1504.2,1812.05z M1627.08,1794.63c-3.77,0-7.09-2.78-7.64-6.62
				c-0.61-4.23,2.32-8.14,6.54-8.75c21.35-3.09,41.83-6.12,61.34-9.09c4.18-0.59,8.16,2.26,8.81,6.47c0.64,4.22-2.25,8.16-6.47,8.81
				c-19.55,2.99-40.07,6.02-61.46,9.11C1627.83,1794.6,1627.45,1794.63,1627.08,1794.63z M1749.78,1775.74
				c-3.7,0-6.97-2.67-7.61-6.45c-0.71-4.21,2.12-8.19,6.34-8.9c22.16-3.74,42.52-7.42,60.8-11.11c4.08-0.82,8.25,1.86,9.11,6.05
				c0.85,4.19-1.86,8.26-6.05,9.11c-18.45,3.71-38.96,7.44-61.31,11.19C1750.63,1775.71,1750.2,1775.74,1749.78,1775.74z
				 M1827.03,1718.82c-1.82,0-3.65-0.63-5.11-1.93c-2.87-2.54-6.53-3.98-10.86-4.29c-0.85-0.06-1.66-0.26-2.44-0.58
				c-12.63-5.3-26.63-10.38-41.61-15.09c-4.07-1.29-6.33-5.63-5.06-9.7c1.28-4.07,5.57-6.34,9.71-5.06
				c14.99,4.72,29.06,9.8,41.83,15.13c7.16,0.77,13.59,3.51,18.65,7.99c3.2,2.83,3.5,7.71,0.68,10.91
				C1831.3,1717.93,1829.16,1718.82,1827.03,1718.82z M1709.5,1681.33c-0.56,0-1.14-0.06-1.71-0.19
				c-18.62-4.21-38.95-8.18-60.39-11.83c-4.21-0.71-7.04-4.7-6.32-8.92c0.71-4.21,4.74-7.08,8.92-6.32
				c21.72,3.68,42.3,7.72,61.2,11.99c4.17,0.94,6.78,5.07,5.84,9.24C1716.23,1678.89,1713.04,1681.33,1709.5,1681.33z
				 M1587.41,1660.28c-0.33,0-0.68-0.02-1.01-0.07c-19.75-2.59-40.21-4.95-61.35-7.12c-4.25-0.43-7.34-4.23-6.9-8.48
				s4.34-7.34,8.47-6.9c21.3,2.18,41.9,4.57,61.79,7.18c4.23,0.55,7.22,4.43,6.65,8.66
				C1594.56,1657.44,1591.24,1660.28,1587.41,1660.28z M1464.13,1647.48c-0.21,0-0.42-0.01-0.63-0.03
				c-20.07-1.63-40.64-3.14-61.69-4.53c-4.27-0.28-7.49-3.95-7.21-8.21c0.28-4.27,4.07-7.52,8.21-7.21
				c21.15,1.39,41.8,2.9,61.93,4.55c4.26,0.34,7.43,4.08,7.07,8.33C1471.5,1644.42,1468.12,1647.48,1464.13,1647.48z
				 M1340.46,1639.26c-0.14,0-0.28,0-0.42-0.01c-20.24-1.09-40.86-2.09-61.82-3c-4.27-0.18-7.58-3.8-7.39-8.05
				c0.18-4.28,4.06-7.73,8.05-7.39c21.03,0.92,41.7,1.91,61.98,3c4.27,0.23,7.54,3.88,7.31,8.14
				C1347.95,1636.07,1344.54,1639.26,1340.46,1639.26z M1216.62,1633.76c-0.09,0-0.19,0-0.28-0.01
				c-20.34-0.74-40.98-1.43-61.89-2.08c-4.27-0.14-7.62-3.71-7.49-7.97c0.14-4.27,3.46-7.45,7.97-7.49
				c20.94,0.65,41.61,1.35,61.97,2.1c4.27,0.15,7.6,3.73,7.44,8C1224.19,1630.48,1220.76,1633.76,1216.62,1633.76z M1092.75,1629.86
				c-0.07,0-0.14,0-0.21,0l-61.93-1.6c-4.27-0.11-7.64-3.65-7.54-7.92c0.1-4.25,3.03-7.35,7.92-7.54l61.97,1.6
				c4.27,0.12,7.63,3.68,7.52,7.94C1100.35,1626.54,1096.92,1629.86,1092.75,1629.86z M968.83,1626.77c-0.06,0-0.12,0-0.18,0
				l-61.94-1.41c-4.27-0.1-7.65-3.64-7.56-7.9c0.1-4.28,3.77-7.3,7.9-7.56l61.96,1.41c4.27,0.1,7.65,3.65,7.55,7.91
				C976.46,1623.43,973.02,1626.77,968.83,1626.77z M844.92,1623.97c-0.06,0-0.11,0-0.17,0l-61.98-1.44
				c-4.27-0.1-7.64-3.65-7.54-7.92c0.1-4.26,3.09-7.28,7.92-7.54l61.93,1.44c4.27,0.1,7.65,3.64,7.56,7.9
				C852.55,1620.62,849.1,1623.97,844.92,1623.97z M721.02,1621.02c-0.06,0-0.13,0-0.2,0l-61.96-1.66
				c-4.27-0.12-7.63-3.68-7.51-7.95c0.12-4.26,3.15-7.35,7.95-7.51l61.92,1.66c4.27,0.11,7.64,3.66,7.53,7.93
				C728.64,1617.69,725.2,1621.02,721.02,1621.02z M597.14,1617.52c-0.08,0-0.16,0-0.24,0c-20.57-0.65-41.23-1.33-61.96-2.05
				c-4.27-0.15-7.6-3.74-7.46-8c0.16-4.27,4.11-7.51,8-7.46c20.71,0.73,41.35,1.41,61.9,2.06c4.27,0.14,7.62,3.7,7.49,7.97
				C604.74,1614.22,601.3,1617.52,597.14,1617.52z M473.29,1613.16c-0.11,0-0.21,0-0.31-0.01c-20.61-0.82-41.26-1.68-61.95-2.61
				c-4.27-0.19-7.57-3.8-7.38-8.06c0.19-4.27,4.26-7.73,8.06-7.38c20.67,0.93,41.31,1.79,61.87,2.61c4.27,0.16,7.59,3.77,7.42,8.02
				C480.85,1609.9,477.42,1613.16,473.29,1613.16z M349.61,1607.64c-0.13,0-0.26,0-0.4-0.01c-20.57-1.04-41.2-2.13-61.84-3.31
				c-4.25-0.24-7.52-3.89-7.28-8.16c0.24-4.26,3.73-7.65,8.16-7.28c20.6,1.18,41.19,2.27,61.74,3.31c4.26,0.21,7.54,3.84,7.33,8.11
				C357.11,1604.43,353.7,1607.64,349.61,1607.64z M226.02,1600.6c-0.17,0-0.33,0-0.5-0.02c-20.61-1.32-41.23-2.71-61.87-4.19
				c-4.26-0.3-7.46-4.01-7.16-8.26c0.3-4.26,4.03-7.45,8.26-7.16c20.59,1.48,41.18,2.87,61.75,4.19c4.26,0.27,7.5,3.95,7.22,8.21
				C233.46,1597.46,230.06,1600.6,226.02,1600.6z M102.41,1591.75c-0.21,0-0.41-0.01-0.62-0.02c-20.62-1.66-41.23-3.4-61.81-5.24
				c-4.26-0.38-7.4-4.14-7.01-8.39c0.38-4.25,4.21-7.51,8.38-7.01c20.55,1.83,41.11,3.57,61.67,5.21c4.26,0.34,7.43,4.08,7.1,8.33
				C109.78,1588.68,106.4,1591.75,102.41,1591.75z M32.73,1561.98c-3.44,0-6.55-2.28-7.47-5.76c-1.1-4.13,1.37-8.35,5.5-9.44
				l59.88-15.84c4.02-1.1,8.34,1.36,9.44,5.5c1.1,4.13-1.37,8.35-5.49,9.44l-59.88,15.84C34.05,1561.9,33.38,1561.98,32.73,1561.98z
				 M152.5,1530.3c-3.44,0-6.55-2.29-7.47-5.76c-1.1-4.13,1.37-8.35,5.5-9.44l59.88-15.84c4.1-1.13,8.35,1.37,9.44,5.49
				c1.1,4.13-1.37,8.36-5.5,9.44l-59.88,15.84C153.81,1530.22,153.15,1530.3,152.5,1530.3z M272.25,1498.63
				c-3.44,0-6.55-2.28-7.47-5.75c-1.1-4.13,1.37-8.36,5.5-9.44l59.88-15.84c4.1-1.08,8.35,1.36,9.44,5.5
				c1.1,4.13-1.37,8.35-5.49,9.44l-59.88,15.84C273.57,1498.55,272.91,1498.63,272.25,1498.63z M392,1466.96
				c-3.42,0-6.54-2.29-7.46-5.76c-1.1-4.13,1.37-8.35,5.5-9.44l59.88-15.84c4.11-1.09,8.35,1.37,9.44,5.5
				c1.1,4.13-1.37,8.36-5.49,9.44l-59.88,15.84C393.33,1466.87,392.66,1466.96,392,1466.96z M511.77,1435.28
				c-3.42,0-6.54-2.28-7.46-5.75c-1.1-4.13,1.37-8.36,5.5-9.44l59.88-15.84c4.03-1.09,8.35,1.36,9.44,5.5
				c1.1,4.13-1.37,8.36-5.49,9.44l-59.88,15.84C513.1,1435.2,512.43,1435.28,511.77,1435.28z M631.54,1403.59
				c-3.44,0-6.55-2.29-7.47-5.76c-1.1-4.13,1.37-8.36,5.5-9.44l59.88-15.83c4.14-1.17,8.35,1.36,9.44,5.5
				c1.1,4.13-1.37,8.35-5.5,9.44l-59.88,15.83C632.85,1403.51,632.18,1403.59,631.54,1403.59z M751.29,1371.92
				c-3.44,0-6.55-2.29-7.47-5.76c-1.1-4.13,1.37-8.35,5.49-9.44l59.88-15.83c4.13-1.21,8.34,1.37,9.44,5.49
				c1.1,4.13-1.37,8.36-5.5,9.44l-59.88,15.84C752.61,1371.84,751.93,1371.92,751.29,1371.92z M852.74,1325.95
				c-2.32,0-4.6-1.03-6.12-3c-0.8-1.03-1.97-1.67-3.5-1.92l-51.36-8.24c-4.21-0.67-7.07-4.64-6.4-8.86c0.68-4.22,4.61-7.17,8.86-6.4
				l51.38,8.24c5.45,0.89,10.02,3.55,13.25,7.72c2.62,3.37,2,8.23-1.38,10.84C856.05,1325.43,854.39,1325.95,852.74,1325.95z
				 M731.82,1303.07c-0.41,0-0.82-0.03-1.24-0.1l-61.16-9.81c-4.21-0.68-7.09-4.64-6.4-8.86c0.66-4.22,4.55-7.12,8.86-6.4
				l61.16,9.82c4.21,0.67,7.09,4.64,6.4,8.86C738.84,1300.36,735.55,1303.07,731.82,1303.07z M609.51,1283.45
				c-0.41,0-0.82-0.03-1.24-0.1l-61.16-9.81c-4.21-0.68-7.09-4.64-6.4-8.86c0.66-4.22,4.57-7.17,8.86-6.4l61.16,9.81
				c4.21,0.67,7.09,4.64,6.4,8.86C616.53,1280.75,613.24,1283.45,609.51,1283.45z M487.2,1263.83c-0.41,0-0.82-0.03-1.24-0.1
				l-61.16-9.82c-4.21-0.67-7.08-4.64-6.4-8.86c0.66-4.22,4.6-7.12,8.86-6.4l61.16,9.81c4.21,0.68,7.07,4.64,6.4,8.86
				C494.21,1261.12,490.92,1263.83,487.2,1263.83z M364.88,1244.21c-0.41,0-0.82-0.03-1.24-0.1l-61.16-9.81
				c-4.21-0.67-7.09-4.64-6.4-8.86c0.67-4.22,4.62-7.18,8.86-6.4l61.16,9.81c4.21,0.67,7.09,4.64,6.4,8.86
				C371.9,1241.5,368.61,1244.21,364.88,1244.21z M242.57,1224.58c-0.41,0-0.82-0.03-1.24-0.1l-61.16-9.81
				c-4.21-0.68-7.08-4.64-6.4-8.86c0.66-4.23,4.54-7.13,8.86-6.4l61.16,9.81c4.21,0.68,7.07,4.64,6.4,8.86
				C249.59,1221.87,246.3,1224.58,242.57,1224.58z M120.26,1204.96c-0.41,0-0.83-0.03-1.24-0.1l-18.92-3.04
				c-11.84-1.9-20.11-11.63-20.11-23.66c0-8.87,4.7-16.76,12.56-21.09l2.02-1.11c3.76-2.06,8.44-0.66,10.49,3.08
				c2.05,3.76,0.66,8.45-3.08,10.49l-1.99,1.09c-3.95,2.18-4.54,5.67-4.54,7.55c0,3.62,2.2,7.6,7.11,8.4l18.93,3.04
				c4.22,0.68,7.08,4.64,6.4,8.86C127.27,1202.26,123.98,1204.96,120.26,1204.96z M154.77,1145.24c-3.16,0-6.13-1.95-7.27-5.09
				c-1.46-4.02,0.61-8.45,4.63-9.9c18.67-6.77,38.93-12.75,60.21-17.79c4.07-0.99,8.33,1.58,9.3,5.73c0.99,4.16-1.58,8.33-5.74,9.3
				c-20.7,4.91-40.38,10.73-58.5,17.29C156.53,1145.09,155.64,1145.24,154.77,1145.24z"/><path fill="#37424c" d="M273.78,1116.36c-3.77,0-7.07-2.76-7.64-6.59c-0.63-4.23,2.29-8.15,6.51-8.79
				c10.19-1.51,20.5-2.85,30.95-4.03c4.15-0.4,8.06,2.58,8.54,6.81s-2.57,8.07-6.81,8.55c-10.26,1.16-20.4,2.48-30.41,3.96
				C274.55,1116.33,274.17,1116.36,273.78,1116.36z"/><path fill="#fa5669" d="M334.42,572.41c-104.11,0-178.51,85.21-178.51,178.51c0,29.4,7.5,59.7,24,88.51l154.51,267.32l154.21-267.32
				C557.04,720.62,471.53,572.41,334.42,572.41z M334.44,862.09c-63.14,0-114.5-51.03-114.5-114.17s51.36-114.17,114.5-114.17
				c62.81,0,114.17,51.03,114.17,114.17S397.25,862.09,334.44,862.09z"/><path fill="#ffc42e" d="M375.47,771.48c0.53,16.77-9.19,31.85-29.99,36.64l0.49,15.34l-14.55,0.29l-0.45-14.06
						c-11.9,0-24.7-3.3-31.39-7.63l3.7-14.12c6.96,4.15,16.83,7.58,27.26,7.85c0.8,0.02,1.59,0.03,2.38,0.01
						c4.61-0.09,8.66-0.86,12.11-2.19c9.12-3.51,14.04-10.97,13.73-20.45c-0.31-9.55-4.71-15.79-15.06-21.13
						c-2.78-1.43-5.99-2.81-9.67-4.16c-1.75-0.59-3.44-1.21-5.08-1.85c-17.97-7.07-29.07-17.46-29.6-34.2
						c-0.53-16.54,10.04-29.8,27.42-34.34l-0.56-17.44l14.55-0.29l0.51,16.04c11.96,0.05,20.8,2.8,26.25,5.79l-4.09,13.73
						c-3.89-2.05-11.52-5.34-21.72-5.65c-0.84-0.03-1.7-0.03-2.57-0.02c-4.79,0.1-8.72,0.99-11.91,2.4
						c-8.36,3.72-11.58,11.1-11.38,17.5c0.27,8.43,4.19,13.81,12.52,18.51c3.64,2.05,8.12,3.98,13.5,5.98
						c0.42,0.16,0.85,0.32,1.26,0.48C364.05,742.49,374.88,752.81,375.47,771.48z"/><path fill="#f5b419" d="M1964.25,2346.77c0,13.72-10.89,26.79-30.58,38.72c-60.69,36.64-205.09,62.4-373.62,62.4
					s-312.93-25.75-373.63-62.4c-19.79-11.93-30.67-25-30.67-38.72c0-55.77,181.03-101.03,404.3-101.03
					S1964.25,2291,1964.25,2346.77z"/><path fill="#e5a424" d="M1964.25,2346.77v77.26c0,55.86-180.94,101.12-404.21,101.12s-404.3-45.26-404.3-101.12v-77.26
					c0,13.72,10.89,26.79,30.67,38.72c60.69,36.64,205.09,62.4,373.63,62.4s312.93-25.75,373.62-62.4
					C1953.36,2373.56,1964.25,2360.49,1964.25,2346.77z"/><path fill="#d69328" d="M1964.26,2346.74V2424c0,55.86-180.94,101.13-404.21,101.13v-77.26c168.54,0,312.93-25.76,373.63-62.4
					C1953.37,2373.54,1964.26,2360.47,1964.26,2346.74z"/><path fill="#d69328" d="M1560,2417.69c-122.55,0-354.32-14.82-354.32-70.92c0-56.1,231.77-70.92,354.32-70.92
					s354.32,14.82,354.32,70.92C1914.32,2402.87,1682.55,2417.69,1560,2417.69z M1560,2294.78c-220.2,0-335.38,33.84-335.38,51.98
					s115.18,51.98,335.38,51.98c220.19,0,335.38-33.84,335.38-51.98S1780.19,2294.78,1560,2294.78z"/><path fill="#eceff0" d="M1376.22,2341.85h43.49c0.43-7.9,8.18-16.09,18.94-20.86l28.85,3.27c-10.33,4.91-18.52,12-18.52,19.64
					c0,9.68,17.66,16.23,42.2,16.23c23.68,0,38.32-5.32,51.24-15.42c17.22-13.91,37.02-22.5,74.48-22.5
					c35.74,0,62.86,8.05,69.31,20.6h43.49v8.45h-41.77c-0.86,8.19-7.75,13.78-15.07,17.74l-28.41-3.41
					c5.17-2.87,14.64-8.46,14.64-17.19c0-10.49-19.8-14.45-37.02-14.45c-22.39,0-33.58,5.05-49.08,16.91
					c-18.09,14.05-40.47,21.14-78.79,21.14c-34.01,0-65.88-7.5-73.2-21.54h-44.77L1376.22,2341.85L1376.22,2341.85z"/><path fill="#f5bf9a" d="M1630.57,1118.04l21.76,68.52l-27.48,14.15c0,0-77.47,77.33-119.87-5.19
			c-16.52-32.14,16.14-67.81,49.43-53.75c0.47,0.2,0.94,0.4,1.41,0.61c1.15,0.5,2.13-0.97,1.2-1.82l-22.06-20.33
			c-3.75-3.46-4.08-9.27-0.75-13.14l0,0c3.07-3.55,8.27-4.31,12.23-1.8l26.71,16.95c5.97,3.79,13.19,5.1,20.12,3.64L1630.57,1118.04
			z"/><path fill="#ffc42f" d="M2327.73,1439.28l-129.69-30.23c0,0-19.95-287.01-103.75-430.66l-187.55,141.66l-275.34,87.79l-25.93-95.77
			l231.44-91.78l269.35-270.35c0,0,164.6-86.79,295.29,52.87c99.75,126.58,132.18,303.47,139.67,542.39l0,0
			C2534.66,1429.98,2441.64,1443.27,2327.73,1439.28z"/><rect width="77.22" height="102.25" x="2601.61" y="2250.35" fill="#f5bf9a" transform="rotate(-20.782 2640.318 2301.563)"/><path fill="#343433" d="M2696.27,2321.98l36.17,43.39c3.03,3.63,4.88,7.78,5.4,12.08l0,0c1.31,10.85-6.01,21.15-18.45,25.97
			l-124.16,48.15c-10.62,4.12-22.29,6.37-34.19,6.58l0,0c-13.07,0.23-24.01-7.83-24.46-18.02l0,0c-0.18-4.15,1.44-8.2,4.6-11.52
			l64.08-83.6c1.53-2,3.82-3.58,6.55-4.52l66.16-22.82C2684.54,2315.41,2692.31,2317.24,2696.27,2321.98z"/><rect width="102.25" height="77.22" x="2110.92" y="2296.55" fill="#f5bf9a" transform="matrix(.00594 -1 1 .00594 -185.923 4483.29)"/><path fill="#343433" d="M2207.14,2374.57l18.11,53.51c1.51,4.48,1.75,9.02,0.68,13.21l0,0c-2.69,10.59-13.22,17.56-26.57,17.58
			l-133.18,0.18c-11.39,0.01-23.08-2.09-34.26-6.19l0,0c-12.27-4.49-19.58-15.96-16.32-25.62l0,0c1.33-3.93,4.3-7.13,8.44-9.09
			l89.9-54.9c2.15-1.31,4.85-1.96,7.74-1.86l69.93,2.57C2198.57,2364.22,2205.16,2368.72,2207.14,2374.57z"/><path fill="#343433" d="M2584.71,2302.46l-203.11-336.45l-33.42-339.03l-100.26,303.11l-31.8,382.87h-109.73l9.86-436.74l81.8-467.18
			c0,0,213.48,39.9,343.17-63.85l-11.97,588.89l151.63,327.42L2584.71,2302.46z"/><path fill="#f5bf9a" d="M2146.08,721.03c1.95-1.12,4.39,0.22,4.48,2.46l1.79,40.75c0.06,2.13,0.07,3.78,1.52,4.74
			c3.91,2.41,7.78,4.04,11.66,4.98c16.8,4.18,33.01-4.12,45.64-14.41c13.01-10.5,22.14-23.04,24.07-26.36
			c0.36-0.57,0.39-1.25,0.19-1.87l-22.06-57.42c-0.33-0.91-0.19-1.91,0.36-2.71c25.45-38.79,1.52-88.92,1.52-88.92
			c-58.92-106.86-134-55.57-167.14-24.19c-11.07,10.48-16.11,25.89-13.47,40.88C2062.64,758.21,2128.83,731.21,2146.08,721.03z"/><path fill="#38424c" d="M2164.32,606.42l8.3,36.35c0.96,4.21-2.67,8.04-6.93,7.31l0,0c-2.16-0.38-3.95-1.9-4.67-3.97l-9.09-26.07
			c-2.01-5.75-6.96-9.93-12.95-11.09c-11.42-2.21-29.62-8.86-33.99-28.9c-0.94-4.32-5.37-6.93-9.58-5.62
			c-14.66,4.58-44.4,12.14-60.52,4.15c-2.96-1.47-6.05-2.67-9.23-3.59c-8.9-2.56-25.46-9.96-24.41-29.41
			c0.17-3.22,2.46-5.94,5.61-6.67l26.52-6.05c1.84-0.42,3.07-2.16,2.86-4.04l-2.67-23.3c-0.29-2.51,1.98-4.58,4.45-4.05l32.78,6.93
			c7.13,1.51,14.47-1.13,19.05-6.8c9.5-11.76,30.6-29.86,68.83-26.31c34,3.15,60.28,30.04,75.64,50.59
			c10.07,13.48,13.58,30.75,9.73,47.12l-9.01,38.36c-0.33,1.42-0.56,2.86-0.68,4.31c-0.91,10.97-0.16,59.47-20.59,56.91
			c-0.56-0.07-1.01-0.51-1.13-1.06l-11.3-21.14c-1.23-5.35-0.87-10.94,1.04-16.08c5.18-13.84,12.99-42.7-10.42-45.76
			c-7.81-1.03-15.78,1.27-21.84,6.27C2166.43,597.91,2163.29,601.94,2164.32,606.42z"/><path fill="#2e90cb" d="M1423.84,1020.6l-3-8.15l-15.21-41.34l-55.48-65.53l-78.88-56.2l-80.21-33.67l-111.84-33.04l-61.81,6.83
				l-40.35,41.79l-24.31,25.22c9.41-9.71,20.59-0.27,37.32-5.46h0.04c75.16-23.25,151.01-11.56,244.57,34.29
				c74.56,36.48,131.52,96.55,164.74,140.73c12.82,17.07,24.27,20.55,28.56,35.99L1423.84,1020.6z"/><path fill="#2e90cb" d="M1442.9,1033.58c-0.33,13.51-3.3,27.32-8.57,39.97c-4.08,9.68-9.52,18.67-16.28,26.21
				c-5.19,5.85-11.17,10.88-17.8,14.71c-5.89,3.46-12.32,5.98-19.25,7.38c-72.24,14.63-166.77-4.41-263.98-56.66
				c-60.9-32.72-109.03-71.62-139.57-111.14c-36.06-46.73-47.6-94.24-26.54-133.43l1.03,0.45l25.09,10.22l15.25,6.22
				c-1.44,4.29-2.14,8.78-2.18,13.52c-0.21,7.37,1.28,15.24,4.2,23.4c16.15,45.49,76.98,101.58,159.93,142.17
				c98.49,48.17,195.08,58.43,232.2,27.53c4.82-4.04,8.66-8.82,11.33-14.26c0.62-1.28,1.16-2.51,1.65-3.79
				c1.57-4.21,2.43-8.53,2.6-13.19c0.13-2.64,0.04-5.4-0.25-8.2l19.08,7.75l21.26,8.69c0.04,0.2,0.08,0.33,0.04,0.53
				C1442.77,1025.58,1442.94,1029.54,1442.9,1033.58z"/><path fill="#5bb2e4" d="M1442.16,1021.66c0.04-0.19,0-0.34-0.04-0.53c-4.13-57.27-82.9-136.75-196.03-192.16
				c-133.15-65.15-263.45-72.25-291.07-15.85c-1.25,2.58-2.27,5.2-3.07,7.93c-3.11,10.73-2.73,22.68,0.8,35.46
				c4.28,15.44,13.16,32.05,25.98,49.07c33.22,44.22,92.8,91.21,167.36,127.69c93.48,45.77,185.64,62.92,241.76,49.45
				c16.99-4.02,30.68-10.88,40.13-20.67c3.75-3.83,6.79-8.15,9.14-12.93C1441.21,1040.82,1442.8,1031.56,1442.16,1021.66z
				 M1397.78,1029.86c-2.69,5.46-6.52,10.24-11.34,14.26c-37.12,30.91-133.72,20.67-232.2-27.53
				c-82.94-40.58-143.77-96.67-159.92-142.14c-2.92-8.19-4.4-16.04-4.21-23.4c0.04-4.74,0.76-9.25,2.2-13.53
				c0.15-0.57,0.38-1.1,0.57-1.67c0.42-1.18,0.91-2.35,1.48-3.49c23.13-47.18,132.17-41.22,243.55,13.31
				c93.52,45.77,159.01,111.3,163.87,159.01c0.31,2.81,0.38,5.57,0.27,8.23c-0.19,4.62-1.06,8.98-2.62,13.16
				C1398.92,1027.35,1398.39,1028.61,1397.78,1029.86z"/><path fill="#eceff0" d="M1399.41,1026.06c-0.49,1.29-1.02,2.54-1.63,3.79c-2.69,5.46-6.52,10.24-11.34,14.26
				c-37.12,30.91-133.72,20.67-232.2-27.53c-82.94-40.58-143.77-96.67-159.92-142.14c-2.92-8.19-4.4-16.04-4.21-23.4
				c75.16-23.25,151.01-11.56,244.57,34.29C1309.23,921.81,1366.19,981.88,1399.41,1026.06z" enable-background="new" opacity=".9"/><path fill="#2e90cb" d="M1854.72,1383.48L1411.7,1095.6l15.92-25.93l457.24,264.71c14.02,8.12,18.6,26.2,10.12,40.01l0,0
			C1886.5,1388.21,1868.3,1392.31,1854.72,1383.48z"/><g><path fill="#8a4323" d="M2461.03,1584.05l90.86,239.47c5.42,14.3,16.91,23.18,25.65,19.86l388.64-147.47
					c8.74-3.32,11.44-17.59,6.01-31.88l-90.86-239.47L2461.03,1584.05z"/><polygon fill="#bf6f30" points="2797.63 1581.92 2828.8 1570.1 2818.08 1541.83 2786.9 1553.67"/><polygon fill="#bf6f30" points="2598.43 1657.51 2629.61 1645.68 2618.88 1617.43 2587.71 1629.25"/><path fill="#bf6f30" d="M2448.25,1550.35l34.36,90.57c4.85,12.77,18.41,19.46,30.32,14.94l377.18-143.13
						c11.9-4.51,17.65-18.52,12.8-31.3l-34.37-90.58c-3.57-9.38-13.52-14.29-22.28-10.97l-388.63,147.46
						C2448.9,1530.68,2444.69,1540.96,2448.25,1550.35z"/><path fill="#8a4323" d="M2589.85,1477.19l7.35-2.79c-9.04-50.47,46.97-79.64,64.62-87.47c7.11-3.15,13.36-3.03,19.2,0.31
						c16.6,9.59,23.92,41.95,24.81,45.94l7.32-2.78c-1.84-8.14-10-39.58-28.61-50.31c-8.01-4.62-16.76-4.88-26-0.75
						C2639.34,1387.86,2578.22,1419.87,2589.85,1477.19z"/><rect width="43.84" height="43.88" x="2573.72" y="1580.87" fill="#8a4323" transform="rotate(-20.782 2595.744 1602.876)"/><polygon fill="#8a4323" points="2781.44 1555.74 2822.43 1540.19 2806.86 1499.16 2765.87 1514.7"/></g><g><path fill="#f5bf9a" d="M2571.36,1329.26l67.63-24.38l15.19,26.92c0,0,80.24,74.45-0.58,119.99
				c-31.48,17.74-68.38-13.53-55.61-47.33c0.18-0.47,0.36-0.95,0.56-1.43c0.46-1.16-1.05-2.09-1.86-1.14l-19.47,22.83
				c-3.31,3.89-9.11,4.44-13.1,1.25l0,0c-3.66-2.93-4.62-8.09-2.27-12.14l15.91-27.34c3.56-6.11,4.59-13.38,2.87-20.24
				L2571.36,1329.26z"/><polygon fill="#ffc42f" points="2489.56 955.96 2656.04 1322.53 2571.17 1354.64 2413.7 1100.94"/></g></svg>